<svg id="Capa_1" enable-background="new 0 0 511.999 511.999" height="512" viewBox="0 0 511.999 511.999" width="512" xmlns="http://www.w3.org/2000/svg"><g><path d="m236.019 430.413c-37.998-28.276-62.659-73.518-62.659-124.414 0-85.468 69.533-155 155-155 13.321 0 26.255 1.69 38.599 4.866.063-.146.132-.287.191-.436 2.249-5.732.767-12.256-3.738-16.454l-144.826-134.951c-5.762-5.367-14.695-5.366-20.456.005l-144.713 134.95c-9.927 9.258-3.369 25.971 10.23 25.971h29.814v301.188c0 8.284 6.716 15 15 15h53.953v-39.922c0-5.518 4.469-9.992 9.986-10l63.348-.086z"/><path d="m192.414 461.189v35.81c0 8.306 6.747 15 15 15 14.227-.02 226.806-.311 240.97-.33 8.27-.01 14.98-6.72 14.98-15v-35.85z"/><path d="m203.361 305.999c0 68.925 56.075 125 125 125s125-56.075 125-125-56.075-125-125-125-125 56.075-125 125zm82.213-42.823c5.838-5.838 15.304-5.838 21.143 0 5.838 5.838 5.838 15.304 0 21.143-5.838 5.838-15.304 5.838-21.143 0s-5.839-15.304 0-21.143zm84.852 84.853c-5.838 5.838-15.304 5.838-21.143 0-5.838-5.838-5.838-15.304 0-21.143s15.304-5.838 21.143 0c5.839 5.839 5.839 15.305 0 21.143zm.707-84.075c5.858 5.857 5.858 15.355 0 21.213l-63.64 63.64c-5.858 5.857-15.354 5.858-21.213 0-5.858-5.857-5.858-15.355 0-21.213l63.64-63.64c5.858-5.857 15.356-5.857 21.213 0z"/></g></svg>