<svg xmlns="http://www.w3.org/2000/svg" width="29" height="29" viewBox="0 0 29 29"><g><g><g><path fill="#693dc1" d="M8.44 28.16v-1.483H6.466z"/></g><g><path fill="#693dc1" d="M20.297 26.677v1.482l1.976-1.482z"/></g><g><path fill="#693dc1" d="M9.075 7.735a6.419 6.419 0 0 1 4.8-2.77v-.988a7.41 7.41 0 0 0-5.66 3.262z"/></g><g><path fill="#693dc1" d="M7.727 8.098a7.355 7.355 0 0 0-.768 3.264c0 1.173.28 2.278.768 3.265l.85-.491a6.376 6.376 0 0 1 .007-5.543z"/></g><g><path fill="#693dc1" d="M17.827 10.868h.988v.988h-.988zm-3.458 0c1.09 0 1.976.887 1.976 1.976v1.977h-1.482v.988h-.988V14.75a1.973 1.973 0 0 1-1.482-1.906h.988c0 .545.443.989.988.989h.988v-.989a.989.989 0 0 0-.988-.988 1.978 1.978 0 0 1-1.976-1.976V7.904h1.482v-.988h.988v1.058c.85.221 1.482.988 1.482 1.906h-.988a.989.989 0 0 0-.988-.988h-.988v.988c0 .545.443.988.988.988zm-3.458.988h-.988v-.988h.988zm3.458-5.928a5.44 5.44 0 0 0-5.434 5.434c0 1.626.72 3.154 1.975 4.192l-.629.76a6.42 6.42 0 0 1-1.202-1.327l-.863.499a7.41 7.41 0 0 0 5.66 3.262v-.985a6.422 6.422 0 0 1-2.76-.87l.503-.85a5.416 5.416 0 0 0 2.75.754 5.44 5.44 0 0 0 5.434-5.435c0-1.625-.72-3.153-1.975-4.19l.629-.762c.47.388.867.838 1.202 1.327l.863-.498a7.41 7.41 0 0 0-5.66-3.262v.984a6.417 6.417 0 0 1 2.76.87l-.503.851a5.417 5.417 0 0 0-2.75-.754z"/></g><g><path fill="#693dc1" d="M14.863 17.76v.988a7.41 7.41 0 0 0 5.66-3.262l-.86-.497a6.419 6.419 0 0 1-4.8 2.77z"/></g><g><path fill="#693dc1" d="M21.012 14.627a7.355 7.355 0 0 0 .767-3.265 7.355 7.355 0 0 0-.767-3.264l-.85.491a6.375 6.375 0 0 1-.007 5.543z"/></g><g><path fill="#693dc1" d="M24.25 24.7v1.73l-2.965 2.223h7.41l-.987-1.976.988-1.976z"/></g><g><path fill="#693dc1" d="M4.489 24.7H.042l.989 1.977-.989 1.976h7.41L4.49 26.43z"/></g><g><path fill="#693dc1" d="M20.297 24.701l-1.482-1.976 1.482-1.976 1.482 1.976zm-5.928 0l-1.482-1.976 1.482-1.976 1.482 1.976zm-5.928 0l-1.482-1.976 1.482-1.976 1.482 1.976zm14.82-4.94H5.477v5.928H23.26z"/></g><g><path fill="#693dc1" d="M26.225 2.98a2.473 2.473 0 0 0-.509-.51c.194-.144.365-.315.51-.51.144.195.315.366.509.51a2.474 2.474 0 0 0-.51.51zm1.977-1.004A1.484 1.484 0 0 1 26.719.494V0h-.988v.494c0 .817-.665 1.482-1.482 1.482h-.494v.988h.494c.817 0 1.482.665 1.482 1.482v.494h.988v-.494c0-.817.666-1.482 1.483-1.482h.494v-.988z"/></g><g><path fill="#693dc1" d="M2.513 6.901c.144.194.315.365.509.51a2.473 2.473 0 0 0-.51.509 2.473 2.473 0 0 0-.509-.51c.194-.144.365-.315.51-.509zm-.494 2.485v.494h.988v-.494c0-.817.665-1.482 1.482-1.482h.494v-.988h-.494a1.484 1.484 0 0 1-1.482-1.482V4.94h-.988v.494c0 .817-.665 1.482-1.483 1.482H.042v.988h.494c.818 0 1.483.665 1.483 1.482z"/></g><g><path fill="#693dc1" d="M6.465 1.96c.144.195.315.366.509.51a2.473 2.473 0 0 0-.51.51 2.473 2.473 0 0 0-.509-.51c.194-.144.365-.315.51-.51zM5.97 4.447v.494h.988v-.494c0-.817.665-1.482 1.482-1.482h.494v-.988H8.44A1.484 1.484 0 0 1 6.959.494V0H5.97v.494c0 .817-.665 1.482-1.482 1.482h-.494v.988h.494c.817 0 1.482.665 1.482 1.482z"/></g><g><path fill="#693dc1" d="M25.747 10.868a2.472 2.472 0 0 0-.51.51 2.474 2.474 0 0 0-.509-.51c.194-.144.365-.315.51-.509.144.194.315.365.509.51zm-1.004-2.47v.494c0 .817-.665 1.482-1.482 1.482h-.494v.988h.494c.817 0 1.482.665 1.482 1.482v.495h.988v-.495c0-.817.665-1.482 1.482-1.482h.495v-.988h-.495a1.484 1.484 0 0 1-1.482-1.482v-.494z"/></g><g><path fill="#693dc1" d="M19.31 0h.987v.988h-.988z"/></g><g><path fill="#693dc1" d="M19.31 1.976h.987v.988h-.988z"/></g><g><path fill="#693dc1" d="M20.297.988h.988v.988h-.988z"/></g><g><path fill="#693dc1" d="M18.321.988h.988v.988h-.988z"/></g><g><path fill="#693dc1" d="M3.5 12.845h.989v.988H3.5z"/></g><g><path fill="#693dc1" d="M3.5 14.82h.989v.989H3.5z"/></g><g><path fill="#693dc1" d="M4.489 13.832h.988v.989h-.988z"/></g><g><path fill="#693dc1" d="M2.513 13.832H3.5v.989h-.988z"/></g><g><path fill="#693dc1" d="M1.03 16.303h.989v.988H1.03z"/></g><g><path fill="#693dc1" d="M1.03 18.279h.989v.988H1.03z"/></g><g><path fill="#693dc1" d="M2.019 17.29h.988v.989h-.988z"/></g><g><path fill="#693dc1" d="M.042 17.29h.989v.989H.042z"/></g><g><path fill="#693dc1" d="M21.78 3.952h.987v.988h-.988z"/></g><g><path fill="#693dc1" d="M21.78 5.928h.987v.988h-.988z"/></g><g><path fill="#693dc1" d="M22.767 4.94h.988v.988h-.988z"/></g><g><path fill="#693dc1" d="M20.791 4.94h.988v.988h-.988z"/></g><g><path fill="#693dc1" d="M26.72 16.303h.988v.988h-.989z"/></g><g><path fill="#693dc1" d="M26.72 18.279h.988v.988h-.989z"/></g><g><path fill="#693dc1" d="M27.707 17.29h.989v.989h-.989z"/></g><g><path fill="#693dc1" d="M25.731 17.29h.988v.989h-.988z"/></g></g></g></svg>