<svg id="_x33_0" enable-background="new 0 0 64 64" height="512" viewBox="0 0 64 64" width="512" xmlns="http://www.w3.org/2000/svg"><g><path d="m22.886 45.84-2.886-.222v2.586l9.343 2.156z"/><path d="m11.242 38.563 1.497 4.49 6.927.533-7.733-5.413c-.233.127-.466.254-.691.39z"/><path d="m9.955 29.606 1.045.628v-4.734l-2.267-1.7c-1.085-.814-1.733-2.11-1.733-3.467 0-2.278 1.767-4.151 4.001-4.321.039-1.641.825-3.151 2.104-4.135-.064-.286-.105-.58-.105-.881 0-2.204 1.792-3.996 3.996-3.996l.004 2h-.004c-1.1 0-1.996.896-1.996 1.996 0 .535.208 1.038.586 1.415.376.375.875.582 1.406.582h.005c.551-.001 1.467-.002 2.553-.001-.349-.602-.55-1.28-.55-1.995 0-2.205 1.792-3.997 3.996-3.997v2c-1.1 0-1.996.896-1.996 1.996 0 .535.208 1.038.586 1.415.376.375.875.582 1.406.582h.005v.001c.335 0 .67.001 1.004.001h.004c1.333 0 2.587-.519 3.53-1.461.945-.945 1.465-2.199 1.465-3.534 0-2.758-2.242-5-4.997-5h-6.679c-7.898 0-14.324 6.426-14.324 14.324 0 5.002 2.665 9.709 6.955 12.282z"/><path d="m18 49.796v-4.331l-6.739-.518-1.734-5.203c-4.09 3.196-6.527 8.094-6.527 13.437v7.819h8v-6.172c0-1.557-.606-3.021-1.707-4.121l1.414-1.414c1.479 1.478 2.293 3.443 2.293 5.535v6.172h18v-4.164c0-1.407-.151-2.792-.435-4.141z"/><path d="m23.804 41.472-3.004-2.504c-1.144-.953-1.8-2.353-1.8-3.841v-4.127h4 .003c1.068 0 2.071-.416 2.826-1.17.249-.249.446-.533.619-.83h-1.212c-1.76 0-3.343-.978-4.13-2.553l1.789-.895c.446.893 1.343 1.448 2.341 1.448h1.764v-4.618l1.977-.988c-.195-2.612-1.566-5.534-2.295-6.927-.837.346-1.742.528-2.676.528-.002 0-.004 0-.006 0-2.81-.003-5.778-.005-6.997-.002-.003 0-.006 0-.01 0-1.064 0-2.065-.414-2.819-1.166-.044-.044-.075-.096-.117-.142-.665.63-1.057 1.513-1.057 2.457v1.858h-1.667c-1.286 0-2.333 1.047-2.333 2.333 0 .73.349 1.428.934 1.866l3.066 2.301v11.979l15.661 10.962c-1.201-2.256-2.838-4.287-4.857-5.969z"/><path d="m46 16c-7.168 0-13 5.832-13 13s5.832 13 13 13 13-5.832 13-13-5.832-13-13-13zm0 23c-5.523 0-10-4.477-10-10s4.477-10 10-10 10 4.477 10 10-4.477 10-10 10z"/><path d="m47 24.184v-2.184h-2v2h-2v3c0 1.654 1.346 3 3 3 .551 0 1 .449 1 1v1h-1c-.551 0-1-.449-1-1v-1h-2v1c0 1.302.839 2.402 2 2.816v2.184h2v-2h2v-3c0-1.654-1.346-3-3-3-.551 0-1-.449-1-1v-1h1c.551 0 1 .449 1 1v1h2v-1c0-1.302-.839-2.402-2-2.816z"/><path d="m59 11h2v2h-2z"/><path d="m59 15h2v2h-2z"/><path d="m61 13h2v2h-2z"/><path d="m57 13h2v2h-2z"/><path d="m45 5h2v2h-2z"/><path d="m45 9h2v2h-2z"/><path d="m47 7h2v2h-2z"/><path d="m43 7h2v2h-2z"/><path d="m54 44h2v2h-2z"/><path d="m54 48h2v2h-2z"/><path d="m56 46h2v2h-2z"/><path d="m52 46h2v2h-2z"/><path d="m34 42h2v2h-2z"/><path d="m34 46h2v2h-2z"/><path d="m36 44h2v2h-2z"/><path d="m32 44h2v2h-2z"/><path d="m35 9h2v2h-2z"/><path d="m35 13h2v2h-2z"/><path d="m37 11h2v2h-2z"/><path d="m33 11h2v2h-2z"/></g></svg>